<svg width="93" height="93" viewBox="0 0 93 93" fill="none" xmlns="http://www.w3.org/2000/svg">
<path d="M71.7137 81.9393C65.5188 75.0206 56.5178 70.6667 46.5 70.6667C36.4822 70.6667 27.4805 75.0206 21.2855 81.9393M46.5 90C22.4756 90 3 70.5244 3 46.5C3 22.4756 22.4756 3 46.5 3C70.5244 3 90 22.4756 90 46.5C90 70.5244 70.5244 90 46.5 90ZM46.5 56.1667C38.4919 56.1667 32 49.6748 32 41.6667C32 33.6585 38.4919 27.1667 46.5 27.1667C54.5081 27.1667 61 33.6585 61 41.6667C61 49.6748 54.5081 56.1667 46.5 56.1667Z" stroke="white" stroke-width="5" stroke-linecap="round" stroke-linejoin="round"/>
</svg>
