<svg width="91" height="93" viewBox="0 0 91 93" fill="none" xmlns="http://www.w3.org/2000/svg">
<path d="M32.0251 32.3558C32.8316 29.8121 34.309 27.5483 36.2954 25.8108C38.2817 24.0734 40.7013 22.9316 43.2818 22.5125C45.8624 22.0935 48.5044 22.4126 50.9186 23.4355C53.3328 24.4583 55.4235 26.1456 56.9597 28.3089C58.4959 30.4722 59.4158 33.0274 59.6212 35.6934C59.8265 38.3595 59.307 41.0325 58.121 43.4154C56.935 45.7984 55.1304 47.7977 52.9026 49.1952C50.6748 50.5926 48.1129 51.3322 45.5 51.3322V56.1678M45.5 90C22.0279 90 3 70.5244 3 46.5C3 22.4756 22.0279 3 45.5 3C68.9721 3 88 22.4756 88 46.5C88 70.5244 68.9721 90 45.5 90ZM45.7352 70.6667V71.15L45.2648 71.1509V70.6667H45.7352Z" stroke="white" stroke-width="5" stroke-linecap="round" stroke-linejoin="round"/>
</svg>
