<svg width="84" height="83" viewBox="0 0 84 83" fill="none" xmlns="http://www.w3.org/2000/svg">
<path d="M81 65.8639V39.7244C81 37.2068 80.9978 35.9473 80.681 34.7758C80.4003 33.7377 79.9396 32.7552 79.316 31.8674C78.6124 30.8656 77.6341 30.0349 75.6737 28.377L52.2737 8.58844C48.634 5.51045 46.8141 3.97223 44.766 3.38685C42.9613 2.87105 41.0377 2.87105 39.233 3.38685C37.1865 3.97179 35.3693 5.50855 31.735 8.5819L8.32727 28.377C6.36687 30.0349 5.38895 30.8656 4.6853 31.8674C4.06174 32.7552 3.59742 33.7377 3.31674 34.7758C3 35.9473 3 37.2068 3 39.7244V65.8639C3 70.2545 3 72.449 3.74217 74.1807C4.73174 76.4896 6.62855 78.3263 9.01758 79.2827C10.8093 80 13.0808 80 17.6237 80C22.1667 80 24.4407 80 26.2324 79.2827C28.6214 78.3263 30.5178 76.49 31.5073 74.1811C32.2495 72.4494 32.25 70.2541 32.25 65.8635V61.1519C32.25 55.9476 36.6152 51.7288 42 51.7288C47.3848 51.7288 51.75 55.9476 51.75 61.1519V65.8635C51.75 70.2541 51.75 72.4494 52.4922 74.1811C53.4817 76.49 55.3786 78.3263 57.7676 79.2827C59.5593 80 61.8308 80 66.3737 80C70.9167 80 73.1907 80 74.9824 79.2827C77.3714 78.3263 79.2678 76.4896 80.2573 74.1807C80.9995 72.449 81 70.2545 81 65.8639Z" stroke="white" stroke-width="5" stroke-linecap="round" stroke-linejoin="round"/>
</svg>
