<svg width="48" height="48" viewBox="0 0 48 48" fill="none" xmlns="http://www.w3.org/2000/svg">
<path d="M36.7518 41.9233C33.6187 38.4242 29.0665 36.2222 24 36.2222C18.9335 36.2222 14.3809 38.4242 11.2478 41.9233M24 46C11.8497 46 2 36.1503 2 24C2 11.8497 11.8497 2 24 2C36.1503 2 46 11.8497 46 24C46 36.1503 36.1503 46 24 46ZM24 28.8889C19.9499 28.8889 16.6667 25.6056 16.6667 21.5556C16.6667 17.5055 19.9499 14.2222 24 14.2222C28.0501 14.2222 31.3333 17.5055 31.3333 21.5556C31.3333 25.6056 28.0501 28.8889 24 28.8889Z" stroke="#8E41DB" stroke-width="3" stroke-linecap="round" stroke-linejoin="round"/>
</svg>
